<?xml version="1.0" encoding="UTF-8"?>
<svg width="100px" height="100px" viewBox="0 0 100 100" version="1.1" xmlns="http://www.w3.org/2000/svg" xmlns:xlink="http://www.w3.org/1999/xlink">
    <!-- Generator: Sketch 50.2 (55047) - http://www.bohemiancoding.com/sketch -->
    <title>1</title>
    <desc>Created with Sketch.</desc>
    <defs></defs>
    <g id="1" stroke="none" stroke-width="1" fill="none" fill-rule="evenodd" stroke-linecap="round">
        <g id="export" transform="translate(0.000000, 35.000000)" stroke="#FFFFFF" stroke-width="3">
            <path d="M7.10542736e-15,25 L62,25 C75,25 68,-3 58,7 L35,30" id="line--3"></path>
            <path d="M0,15 L70,15" id="line--2"></path>
            <path d="M0,5 L62,5 C75,5 68,33 58,23 L35,0" id="line--1"></path>
        </g>
        <g id="cross" stroke="#50E3C2" stroke-linejoin="round" stroke-width="3">
            <path d="M50,50 L58,42 L50,50 L42,42 L50,50 Z M50,50 L42,58 L50,50 L58,58 L50,50 Z" id="bltr"></path>
        </g>
        <g id="menu" stroke="#4A90E2" stroke-linejoin="bevel" stroke-width="3">
            <path d="M38,60 L62,60" id="bottom"></path>
            <path d="M38,50 L62,50" id="middle"></path>
            <path d="M38,40 L62,40" id="top"></path>
        </g>
    </g>
</svg>