<?xml version="1.0" encoding="UTF-8"?>
<svg width="100px" height="100px" viewBox="0 0 100 100" version="1.1" xmlns="http://www.w3.org/2000/svg" xmlns:xlink="http://www.w3.org/1999/xlink">
    <!-- Generator: Sketch 50.2 (55047) - http://www.bohemiancoding.com/sketch -->
    <title>3</title>
    <desc>Created with Sketch.</desc>
    <defs></defs>
    <g id="3" stroke="none" stroke-width="1" fill="none" fill-rule="evenodd" stroke-linecap="round">
        <g id="export" transform="translate(0.000000, 30.000000)" stroke="#FFFFFF" stroke-width="3">
            <path d="M0,40 L28,12 C30,10 30,10 35,10 L99,10" id="line--3"></path>
            <path d="M0,20 L99,20" id="line--2"></path>
            <path d="M0,0 L28,28 C30,30 30,30 35,30 L99,30" id="line--1"></path>
        </g>
        <g id="cross" stroke="#50E3C2" stroke-linejoin="round" stroke-width="3">
            <path d="M50,50 L58,42 L50,50 L42,42 L50,50 Z M50,50 L42,58 L50,50 L58,58 L50,50 Z" id="bltr"></path>
        </g>
        <g id="menu" stroke="#4A90E2" stroke-linejoin="bevel" stroke-width="3">
            <path d="M38,60 L62,60" id="bottom"></path>
            <path d="M38,50 L62,50" id="middle"></path>
            <path d="M38,40 L62,40" id="top"></path>
        </g>
    </g>
</svg>