<?xml version="1.0" encoding="UTF-8"?>
<svg width="100px" height="100px" viewBox="0 0 100 100" version="1.1" xmlns="http://www.w3.org/2000/svg" xmlns:xlink="http://www.w3.org/1999/xlink">
    <!-- Generator: Sketch 50.2 (55047) - http://www.bohemiancoding.com/sketch -->
    <title>4</title>
    <desc>Created with Sketch.</desc>
    <defs></defs>
    <g id="4" stroke="none" stroke-width="1" fill="none" fill-rule="evenodd" stroke-linecap="round">
        <g id="export" transform="translate(0.000000, 32.000000)" stroke="#FFFFFF" stroke-width="3">
            <path d="M0,28 L62,28 C80,28 80,48 45,23 L31,13" id="line--3"></path>
            <path d="M0,18 L80,18" id="line--2"></path>
            <path d="M0,8 L62,8 C80,8 80,-12 45,13 L31,23" id="line--1"></path>
        </g>
        <g id="back" stroke="#B8E986" stroke-linejoin="round" stroke-width="3">
            <path d="M38,50 L45.0827625,55.0827625 L38,50 Z M38,50 L62,50 L38,50 Z M38,50 L45,45 L38,50 Z" id="middle"></path>
        </g>
        <g id="menu" stroke="#4A90E2" stroke-linejoin="bevel" stroke-width="3">
            <path d="M38,60 L62,60" id="bottom"></path>
            <path d="M38,50 L62,50" id="middle"></path>
            <path d="M38,40 L62,40" id="top"></path>
        </g>
    </g>
</svg>