<?xml version="1.0" encoding="UTF-8"?>
<svg width="100px" height="100px" viewBox="0 0 100 100" version="1.1" xmlns="http://www.w3.org/2000/svg" xmlns:xlink="http://www.w3.org/1999/xlink">
    <!-- Generator: Sketch 50.2 (55047) - http://www.bohemiancoding.com/sketch -->
    <title>5</title>
    <desc>Created with Sketch.</desc>
    <defs></defs>
    <g id="5" stroke="none" stroke-width="1" fill="none" fill-rule="evenodd" stroke-linecap="round">
        <g id="export" transform="translate(0.000000, 30.000000)" stroke="#FFFFFF" stroke-width="3">
            <path d="M0,10 L65,10 C72,10 82,20 90,20 L105,20 C109.666667,20 116.666667,16.6666667 126,10 L140,0" id="line--3"></path>
            <path d="M0,20 L105,20" id="line--2"></path>
            <path d="M0,30 L65,30 C72,30 82,20 90,20 L105,20 C109.666667,20 116.666667,23.3333333 126,30 L140,40" id="line--1"></path>
        </g>
        <g id="back" stroke="#B8E986" stroke-linejoin="round" stroke-width="3">
            <path d="M38,50 L45.0827625,55.0827625 L38,50 Z M38,50 L62,50 L38,50 Z M38,50 L45,45 L38,50 Z" id="middle"></path>
        </g>
        <g id="menu" stroke="#4A90E2" stroke-linejoin="bevel" stroke-width="3">
            <path d="M38,60 L62,60" id="bottom"></path>
            <path d="M38,50 L62,50" id="middle"></path>
            <path d="M38,40 L62,40" id="top"></path>
        </g>
    </g>
</svg>