<?xml version="1.0" encoding="UTF-8"?>
<svg width="100px" height="100px" viewBox="0 0 100 100" version="1.1" xmlns="http://www.w3.org/2000/svg" xmlns:xlink="http://www.w3.org/1999/xlink">
    <!-- Generator: Sketch 50.2 (55047) - http://www.bohemiancoding.com/sketch -->
    <title>6</title>
    <desc>Created with Sketch.</desc>
    <defs></defs>
    <g id="6" stroke="none" stroke-width="1" fill="none" fill-rule="evenodd" stroke-linecap="round">
        <g id="export" transform="translate(0.000000, 40.000000)" stroke="#FFFFFF" stroke-width="3">
            <path d="M0,5 L14,15 C18.6666667,18.3333333 23,20 27,20 L99,20" id="line--3"></path>
            <path d="M0,10 L99,10" id="line--2"></path>
            <path d="M0,15 L14,5 C18.6666667,1.66666667 23,0 27,0 L99,0" id="line--1"></path>
        </g>
        <g id="back" stroke="#B8E986" stroke-linejoin="round" stroke-width="3">
            <path d="M38,50 L45.0827625,55.0827625 L38,50 Z M38,50 L62,50 L38,50 Z M38,50 L45,45 L38,50 Z" id="middle"></path>
        </g>
        <g id="menu" stroke="#4A90E2" stroke-linejoin="bevel" stroke-width="3">
            <path d="M38,60 L62,60" id="bottom"></path>
            <path d="M38,50 L62,50" id="middle"></path>
            <path d="M38,40 L62,40" id="top"></path>
        </g>
    </g>
</svg>